<?xml version="1.0" standalone="no"?><!DOCTYPE svg PUBLIC "-//W3C//DTD SVG 1.1//EN" "http://www.w3.org/Graphics/SVG/1.1/DTD/svg11.dtd"><svg t="1576758416255" class="icon" viewBox="0 0 1024 1024" version="1.1" xmlns="http://www.w3.org/2000/svg" p-id="1930" xmlns:xlink="http://www.w3.org/1999/xlink" width="32" height="32"><defs><style type="text/css"></style></defs><path d="M513.796267 940.398933c-109.213867 0-218.427733-41.634133-301.696-124.9024-166.237867-166.237867-166.237867-437.162667 0-603.396266 166.2336-166.237867 437.162667-166.237867 603.396266 0 166.237867 166.2336 166.237867 437.162667 0 603.396266-83.268267 83.268267-192.482133 124.9024-301.696 124.9024z m-256.443734-170.154666c141.499733 141.495467 371.392 141.495467 512.887467 0 141.499733-141.499733 141.499733-371.392 0-512.891734-141.495467-141.495467-371.387733-141.495467-512.887467 0-141.495467 141.499733-141.495467 371.392 0 512.887467z" p-id="1931" fill="#888888"></path><path d="M545.476267 543.6672v126.109867c0 23.530667-10.56 42.538667-34.090667 42.538666s-29.866667-19.008-29.866667-42.538666v-126.109867h-127.317333c-23.534933 0-42.538667-6.336-42.538667-29.866667s19.003733-34.094933 42.538667-34.094933h127.317333V354.197333c0-23.530667 6.331733-42.538667 29.866667-42.538666s34.090667 19.008 34.090667 42.538666v125.508267h129.1264c23.534933 0 42.538667 10.56 42.538666 34.090667s-19.003733 29.866667-42.538666 29.866666h-129.1264z" p-id="1932" fill="#888888"></path></svg>