<?xml version="1.0" standalone="no"?><!DOCTYPE svg PUBLIC "-//W3C//DTD SVG 1.1//EN" "http://www.w3.org/Graphics/SVG/1.1/DTD/svg11.dtd"><svg t="1582965207890" class="icon" viewBox="0 0 1024 1024" version="1.1" xmlns="http://www.w3.org/2000/svg" p-id="4166" width="32" height="32" xmlns:xlink="http://www.w3.org/1999/xlink"><defs><style type="text/css"></style></defs><path d="M512 112c54 0 106.4 10.6 155.7 31.4 47.6 20.1 90.4 49 127.2 85.7 36.7 36.7 65.6 79.5 85.7 127.2C901.4 405.6 912 458 912 512s-10.6 106.4-31.4 155.7c-20.1 47.6-49 90.4-85.7 127.2-36.7 36.7-79.5 65.6-127.2 85.7C618.4 901.4 566 912 512 912s-106.4-10.6-155.7-31.4c-47.6-20.1-90.4-49-127.2-85.7-36.7-36.7-65.6-79.5-85.7-127.2C122.6 618.4 112 566 112 512s10.6-106.4 31.4-155.7c20.1-47.6 49-90.4 85.7-127.2 36.7-36.7 79.5-65.6 127.2-85.7C405.6 122.6 458 112 512 112m0-40C269 72 72 269 72 512s197 440 440 440 440-197 440-440S755 72 512 72z m176.8 234.9L512 483.7 335.2 306.9l-28.3 28.3L483.7 512 306.9 688.8l28.3 28.3L512 540.3l176.8 176.8 28.3-28.3L540.3 512l176.8-176.8-28.3-28.3z" fill="#888888" p-id="4167"></path></svg>