<?xml version="1.0" standalone="no"?><!DOCTYPE svg PUBLIC "-//W3C//DTD SVG 1.1//EN" "http://www.w3.org/Graphics/SVG/1.1/DTD/svg11.dtd"><svg t="1583120435640" class="icon" viewBox="0 0 1024 1024" version="1.1" xmlns="http://www.w3.org/2000/svg" p-id="5462" width="32" height="32" xmlns:xlink="http://www.w3.org/1999/xlink"><defs><style type="text/css"></style></defs><path d="M750.933333 119.466667H290.133333c-65.877333 0-119.466667 53.589333-119.466666 119.466666v119.466667h68.266666v-119.466667c0-28.16 23.04-51.2 51.2-51.2h460.8c18.773333 0 34.133333 15.36 34.133334 34.133334v597.333333c0 18.773333-15.36 34.133333-34.133334 34.133333H290.133333c-28.16 0-51.2-23.04-51.2-51.2v-153.6h-68.266666v153.6c0 65.877333 53.589333 119.466667 119.466666 119.466667h460.8c56.490667 0 102.4-45.909333 102.4-102.4V221.866667c0-56.490667-45.909333-102.4-102.4-102.4z" p-id="5463" fill="#666666"></path><path d="M396.117333 641.194667l48.298667 48.128L630.272 503.466667 444.416 317.610667l-48.298667 48.128L508.245333 477.866667H136.533333v68.266666h354.645334z" p-id="5464" fill="#666666"></path></svg>