<?xml version="1.0" standalone="no"?><!DOCTYPE svg PUBLIC "-//W3C//DTD SVG 1.1//EN" "http://www.w3.org/Graphics/SVG/1.1/DTD/svg11.dtd"><svg t="1582879112718" class="icon" viewBox="-100 -100 1324 1324" version="1.1" xmlns="http://www.w3.org/2000/svg" p-id="7971" width="32" height="32" xmlns:xlink="http://www.w3.org/1999/xlink"><defs><style type="text/css"></style></defs><path d="M750.952139 1023.999132H195.742046A156.152839 156.152839 0 0 1 39.589207 859.171136V173.833678A173.503154 173.503154 0 0 1 74.289838 52.38147 182.178312 182.178312 0 0 1 213.092361 0.330524h485.808831l34.700631 17.350315 164.827996 190.853469a43.375789 43.375789 0 0 1 17.350316 34.700631v52.050946a52.050946 52.050946 0 0 1-43.375789 43.375789 43.375789 43.375789 0 0 1-43.375788-43.375789V260.585255L681.550877 87.082101H213.092361a86.751577 86.751577 0 0 0-69.401262 26.025473A104.101892 104.101892 0 0 0 126.340784 173.833678v685.337458c0 78.076419 60.726104 78.076419 69.401262 78.076419h555.210093a86.751577 86.751577 0 0 0 86.751577-69.401261 43.375789 43.375789 0 0 1 52.050946-26.025473c26.025473 0 34.700631 26.025473 34.700631 52.050946a190.853469 190.853469 0 0 1-173.503154 130.127365z" p-id="7972" fill="#666666"></path><path d="M933.13045 624.941878H438.646461a43.375789 43.375789 0 0 1-43.375788-43.375788 43.375789 43.375789 0 0 1 43.375788-43.375789h399.057255l-78.07642-78.076419c-8.675158-17.350315-8.675158-52.050946 8.675158-60.726104a43.375789 43.375789 0 0 1 60.726104 0l138.802523 156.152839a26.025473 26.025473 0 0 1 8.675158 43.375788 43.375789 43.375789 0 0 1-43.375789 26.025473z" p-id="7973" fill="#666666"></path><path d="M785.652769 763.744401h-34.70063a34.700631 34.700631 0 0 1 8.675157-69.401261L907.104977 555.540617a43.375789 43.375789 0 0 1 60.726104 60.726103L811.678242 755.069244z" p-id="7974" fill="#666666"></path></svg>