<?xml version="1.0" standalone="no"?><!DOCTYPE svg PUBLIC "-//W3C//DTD SVG 1.1//EN" "http://www.w3.org/Graphics/SVG/1.1/DTD/svg11.dtd"><svg t="1582685102573" class="icon" viewBox="0 0 1200 1024" version="1.1" xmlns="http://www.w3.org/2000/svg" p-id="3728" width="32" height="32" xmlns:xlink="http://www.w3.org/1999/xlink"><defs><style type="text/css"></style></defs><path d="M716.5 459.9v420c0 44-36 80-80 80h-490c-44 0-80-36-80-80v-420c0-44 36-80 80-80H219v50h-72.4c-7.9 0-15.4 3.1-21.1 8.9-5.7 5.7-8.9 13.2-8.9 21.1v420c0 7.9 3.1 15.4 8.9 21.1 5.7 5.7 13.2 8.9 21.1 8.9h490c7.9 0 15.4-3.1 21.1-8.9 5.7-5.7 8.9-13.2 8.9-21.1v-420c0-7.9-3.1-15.4-8.9-21.1-5.7-5.7-13.2-8.9-21.1-8.9H437v-50h199.5c44 0 80 36 80 80z m162.2-396h-490c-44 0-80 36-80 80v420c0 44 36 80 80 80h190v-50h-190c-7.9 0-15.4-3.1-21.1-8.9-5.7-5.7-8.9-13.2-8.9-21.1v-420c0-7.9 3.1-15.4 8.9-21.1 5.7-5.7 13.2-8.9 21.1-8.9h490c7.9 0 15.4 3.1 21.1 8.9 5.7 5.7 8.9 13.2 8.9 21.1v420c0 7.9-3.1 15.4-8.9 21.1-5.7 5.7-13.2 8.9-21.1 8.9h-81.9v50h81.9c44 0 80-36 80-80v-420c0-44-36-80-80-80z" fill="#666666" p-id="3729"></path></svg>