<?xml version="1.0" standalone="no"?><!DOCTYPE svg PUBLIC "-//W3C//DTD SVG 1.1//EN" "http://www.w3.org/Graphics/SVG/1.1/DTD/svg11.dtd"><svg t="1583728472789" class="icon" viewBox="110 130 750 750" version="1.1" xmlns="http://www.w3.org/2000/svg" p-id="18374" width="32" height="32" xmlns:xlink="http://www.w3.org/1999/xlink"><defs><style type="text/css"></style></defs><path d="M589.6 509v-47.1c0-20.7-8.1-40.2-22.7-54.8-14.6-14.7-34.1-22.7-54.9-22.7-42.8 0-77.6 34.8-77.6 77.6v47c-40.1 16.2-68.4 55.6-68.4 101.5C366 671 415 720 475.5 720h73C609 720 658 671 658 610.5c0-46-28.3-85.3-68.4-101.5z m-125.2-47.1c0-26.2 21.3-47.6 47.6-47.6 12.7 0 24.7 4.9 33.6 13.9 9 9 13.9 20.9 13.9 33.6v39.7c-3.6-0.4-7.3-0.6-11.1-0.6h-73c-3.7 0-7.4 0.2-11.1 0.6l0.1-39.6zM548.5 690h-73c-43.8 0-79.5-35.7-79.5-79.5s35.7-79.5 79.5-79.5h73c43.8 0 79.5 35.7 79.5 79.5S592.3 690 548.5 690z" fill="#666666" p-id="18375"></path><path d="M512 645.2c-8.3 0-15-6.7-15-15v-40c0-8.3 6.7-15 15-15s15 6.7 15 15v40c0 8.2-6.7 15-15 15z" fill="#666666" p-id="18376"></path><path d="M727.5 805.1h-431c-30.3 0-55-24.7-55-55V454.7c0-16.1 7-31.3 19.2-41.7l0.1-0.1 215.5-180.7c10-8.5 22.7-13.2 35.8-13.2 13.1 0 25.8 4.7 35.8 13.2L763.4 413c12.2 10.5 19.2 25.7 19.2 41.7v295.4c-0.1 30.3-24.8 55-55.1 55zM280.1 435.7c-5.5 4.8-8.7 11.6-8.7 18.9V750c0 13.8 11.2 25 25 25h431c13.8 0 25-11.2 25-25V454.7c0-7.3-3.2-14.2-8.7-18.9L528.3 254.9c-9.4-8.1-23.2-8.1-32.6 0l-0.1 0.1-215.5 180.7z" fill="#666666" p-id="18377"></path></svg>