<?xml version="1.0" standalone="no"?><!DOCTYPE svg PUBLIC "-//W3C//DTD SVG 1.1//EN" "http://www.w3.org/Graphics/SVG/1.1/DTD/svg11.dtd"><svg t="1583482897017" class="icon" viewBox="0 0 1024 1024" version="1.1" xmlns="http://www.w3.org/2000/svg" p-id="29692" width="32" height="32" xmlns:xlink="http://www.w3.org/1999/xlink"><defs><style type="text/css"></style></defs><path d="M465.454545 579.490909v155.927273h-100.072727V288.581818h162.909091c118.690909 0 179.2 46.545455 179.2 139.636364 0 46.545455-16.290909 81.454545-53.527273 109.381818s-81.454545 41.890909-134.981818 39.563636H465.454545z m0-218.763636v144.290909h44.218182c60.509091 0 90.763636-23.272727 90.763637-72.145455 0-46.545455-30.254545-72.145455-88.436364-72.145454h-46.545455z" p-id="29693" fill="#888888"></path><path d="M854.109091 923.927273h-209.454546c-16.290909 0-30.254545-11.636364-30.254545-30.254546 0-16.290909 13.963636-30.254545 30.254545-30.254545h209.454546c11.636364 0 23.272727-9.309091 23.272727-23.272727V181.527273c0-11.636364-9.309091-23.272727-23.272727-23.272728h-207.127273c-16.290909 0-30.254545-11.636364-30.254545-30.254545s11.636364-27.927273 30.254545-27.927273h207.127273c46.545455 0 83.781818 37.236364 83.781818 81.454546v660.945454c0 44.218182-37.236364 81.454545-83.781818 81.454546zM379.345455 923.927273h-209.454546c-46.545455 0-83.781818-37.236364-83.781818-81.454546V181.527273c0-44.218182 37.236364-81.454545 83.781818-81.454546h209.454546c16.290909 0 30.254545 11.636364 30.254545 30.254546s-13.963636 30.254545-30.254545 30.254545h-209.454546c-11.636364 0-23.272727 9.309091-23.272727 23.272727v660.945455c0 11.636364 9.309091 23.272727 23.272727 23.272727h209.454546c16.290909 0 30.254545 11.636364 30.254545 30.254546 0 11.636364-16.290909 25.6-30.254545 25.6z" p-id="29694" fill="#888888"></path></svg>