<?xml version="1.0" standalone="no"?><!DOCTYPE svg PUBLIC "-//W3C//DTD SVG 1.1//EN" "http://www.w3.org/Graphics/SVG/1.1/DTD/svg11.dtd"><svg t="1582965162838" class="icon" viewBox="0 0 1024 1024" version="1.1" xmlns="http://www.w3.org/2000/svg" p-id="3300" width="32" height="32" xmlns:xlink="http://www.w3.org/1999/xlink"><defs><style type="text/css"></style></defs><path d="M756.1 178.4H411.2c-38.2 0.3-69.1 31.2-69.4 69.4v29.4c0 1.4 0.1 2.9 0.4 4.2h-88.7c-38.2 0.3-69.1 31.2-69.4 69.4V763c0.3 38.2 31.2 69.1 69.4 69.4h344.9c19 0.2 37.3-7.3 50.7-20.8 13.4-13.4 20.9-31.7 20.8-50.7v-31.6h86.2c38.9-0.6 70-32.6 69.4-71.5v-410c-0.3-38.2-31.2-69-69.4-69.4zM625.7 761c-0.3 15-12.3 27.1-27.3 27.3H253.5c-15-0.3-27.1-12.4-27.3-27.3V350.9c0.3-15 12.3-27.1 27.3-27.3h216.6v96.7c0.5 30 24.7 54.2 54.7 54.7h96.7l4.2 4.2V761z m-71.5-328.2h-31.5c-6.8-0.5-12.2-5.8-12.6-12.6v-31.5l44.1 44.1zM783.4 660c-0.3 15-12.4 27.1-27.3 27.3h-86.2v-225L489 281.5H383.4c0.3-1.4 0.4-2.8 0.4-4.2v-29.4c0.3-15 12.4-27.1 27.3-27.3H756c15 0.3 27.1 12.3 27.3 27.3V660z" p-id="3301" fill="#888888"></path></svg>