<?xml version="1.0" standalone="no"?><!DOCTYPE svg PUBLIC "-//W3C//DTD SVG 1.1//EN" "http://www.w3.org/Graphics/SVG/1.1/DTD/svg11.dtd"><svg t="1576758992578" class="icon" viewBox="0 0 1024 1024" version="1.1" xmlns="http://www.w3.org/2000/svg" p-id="3345" xmlns:xlink="http://www.w3.org/1999/xlink" width="32" height="32"><defs><style type="text/css"></style></defs><path d="M379.941823 135.658679c0-4.13825 0-13.759375 18.327414-13.759375l236.221026 0c4.837168 0 20.639063 0.968048 20.639063 13.759375l0 41.278125 55.037501 0 0-41.278125c0-39.881312-31.818683-68.795852-75.676563-68.795852L398.269237 66.862827c-43.213197 0-73.364915 28.27088-73.364915 68.795852l0 41.278125 55.037501 0L379.941823 135.658679z" p-id="3346" fill="#888888"></path><path d="M869.744265 177.044252 154.254711 177.044252c-15.210423 0-27.51875 12.308327-27.51875 27.51875 0 15.210423 12.307304 27.519774 27.51875 27.519774l60.358693 0 0 651.906423c0 40.364313 37.515429 73.15002 83.631746 73.15002l440.300005 0c46.115294 0 83.631746-39.504736 83.631746-88.039125L822.1769 232.081753l47.566342 0c15.210423 0 27.51875-12.308327 27.51875-27.519774C897.261992 189.352579 884.954689 177.044252 869.744265 177.044252zM764.989433 869.099071c0 16.715707-12.093433 30.851659-26.444279 30.851659L298.24515 899.950729c-14.889105 0-26.444279-8.599865-26.444279-15.963577L271.800871 232.081753l493.188562 0L764.989433 869.099071z" p-id="3347" fill="#888888"></path><path d="M408.803151 790.197046c15.210423 0 27.519774-12.307304 27.519774-27.51875L436.322925 377.415792c0-15.210423-12.308327-27.51875-27.519774-27.51875-15.2094 0-27.51875 12.307304-27.51875 27.51875l0 385.263527C381.285424 777.889743 393.593751 790.197046 408.803151 790.197046z" p-id="3348" fill="#888888"></path><path d="M518.879176 790.197046c15.210423 0 27.519774-12.307304 27.519774-27.51875L546.39895 377.415792c0-15.210423-12.308327-27.51875-27.519774-27.51875s-27.51875 12.307304-27.51875 27.51875l0 385.263527C491.360426 777.889743 503.667729 790.197046 518.879176 790.197046z" p-id="3349" fill="#888888"></path><path d="M628.954177 790.197046c15.210423 0 27.519774-12.307304 27.519774-27.51875L656.473951 377.415792c0-15.210423-12.308327-27.51875-27.519774-27.51875s-27.51875 12.307304-27.51875 27.51875l0 385.263527C601.435427 777.889743 613.743754 790.197046 628.954177 790.197046z" p-id="3350" fill="#888888"></path></svg>