<?xml version="1.0" standalone="no"?><!DOCTYPE svg PUBLIC "-//W3C//DTD SVG 1.1//EN" "http://www.w3.org/Graphics/SVG/1.1/DTD/svg11.dtd"><svg t="1576648324993" class="icon" viewBox="0 0 1024 1024" version="1.1" xmlns="http://www.w3.org/2000/svg" p-id="3453" xmlns:xlink="http://www.w3.org/1999/xlink" width="32" height="32"><defs><style type="text/css"></style></defs><path d="M646.947 404.263H377.474V134.789h-53.895v323.369h377.263V134.789h-53.895v269.474zM754.734 80.889H215.787c-59.533 0-107.79 48.26-107.79 107.791v646.736c0 59.531 48.256 107.79 107.79 107.79h592.842c59.529 0 107.789-48.259 107.789-107.79V296.47L754.734 80.889z m107.789 754.527c0 29.766-24.13 53.894-53.895 53.894H215.787c-29.764 0-53.895-24.128-53.895-53.894V188.68c0-29.766 24.13-53.895 53.895-53.895h485.052l161.685 215.578v485.053zM566.105 350.368c14.883 0 26.947-12.064 26.947-26.947V215.632c0-14.883-12.064-26.947-26.947-26.947s-26.947 12.064-26.947 26.947v107.789c0 14.883 12.065 26.947 26.947 26.947z" p-id="3454" fill="#888888"></path></svg>