<?xml version="1.0" standalone="no"?><!DOCTYPE svg PUBLIC "-//W3C//DTD SVG 1.1//EN" "http://www.w3.org/Graphics/SVG/1.1/DTD/svg11.dtd"><svg t="1596800905421" class="icon" viewBox="-100 -100 1150 1200" version="1.1" xmlns="http://www.w3.org/2000/svg" p-id="4235" width="32" height="32" xmlns:xlink="http://www.w3.org/1999/xlink"><defs><style type="text/css"></style></defs><path d="M674.496 1019.072l342.848-237.312a12.992 12.992 0 0 0 5.696-10.816 12.992 12.992 0 0 0-5.696-10.752l-342.848-237.44a11.776 11.776 0 0 0-12.992-0.256 12.8 12.8 0 0 0-5.824 12.096v168.64H365.632s-156.352 3.968-195.84-115.712a310.272 310.272 0 0 0 124.288 219.712c30.08 20.928 65.536 31.872 101.696 31.36h257.984v168.704c0.256 4.992 2.944 9.6 7.168 11.968a13.312 13.312 0 0 0 13.568-0.192zM352.512 3.008L9.792 240.32a12.992 12.992 0 0 0-5.696 10.816c0 4.352 2.176 8.448 5.696 10.816L352.512 499.2c3.968 2.688 8.96 2.816 12.992 0.32a12.8 12.8 0 0 0 5.888-12.096V318.784h290.048s156.288-3.84 195.84 115.776a310.272 310.272 0 0 0-124.288-219.712 173.632 173.632 0 0 0-101.76-31.36H371.584V14.72a12.8 12.8 0 0 0-5.888-12.16 11.776 11.776 0 0 0-13.12 0.384z" fill="#888888" p-id="4236"></path></svg>