<?xml version="1.0" encoding="UTF-8"?>
<svg width="30px" height="30px" viewBox="0 0 30 30" version="1.1" xmlns="http://www.w3.org/2000/svg" xmlns:xlink="http://www.w3.org/1999/xlink">
    <!-- Generator: Sketch 53.2 (72643) - https://sketchapp.com -->
    <title>矩形 copy 140</title>
    <desc>Created with Sketch.</desc>
    <g id="页面-1" stroke="none" stroke-width="1" fill="none" fill-rule="evenodd">
        <g id="交易列表-删除单条数据（UI）-" transform="translate(-1187.000000, -400.000000)">
            <g id="分组-220" transform="translate(1175.000000, 393.000000)">
                <g id="分组-116" transform="translate(12.000000, 7.000000)">
                    <rect id="矩形-copy-140" x="0" y="0" width="30" height="30"></rect>
                    <g id="分组-98" transform="translate(6.000000, 6.000000)" stroke="#E14C46">
                        <circle id="椭圆形" stroke-width="1.2" cx="9" cy="9" r="8.4"></circle>
                        <path d="M8.91444993,6.60355417 L8.91444993,8.90355417 L6.61444993,8.90355417 C6.55922146,8.90355417 6.51444993,8.9483257 6.51444993,9.00355417 C6.51444993,9.05878265 6.55922146,9.10355417 6.61444993,9.10355417 L8.91444993,9.10355417 L8.91444993,11.4035542 C8.91444993,11.4587826 8.95922146,11.5035542 9.01444993,11.5035542 C9.06967841,11.5035542 9.11444993,11.4587826 9.11444993,11.4035542 L9.11444993,9.10355417 L11.4144499,9.10355417 C11.4696784,9.10355417 11.5144499,9.05878265 11.5144499,9.00355417 C11.5144499,8.9483257 11.4696784,8.90355417 11.4144499,8.90355417 L9.11444993,8.90355417 L9.11444993,6.60355417 C9.11444993,6.5483257 9.06967841,6.50355417 9.01444993,6.50355417 C8.95922146,6.50355417 8.91444993,6.5483257 8.91444993,6.60355417 Z" id="合并形状"></path>
                    </g>
                </g>
            </g>
        </g>
    </g>
</svg>