<?xml version="1.0" standalone="no"?><!DOCTYPE svg PUBLIC "-//W3C//DTD SVG 1.1//EN" "http://www.w3.org/Graphics/SVG/1.1/DTD/svg11.dtd"><svg t="1594957669244" class="icon" viewBox="-280 -280 1500 1500" version="1.1" xmlns="http://www.w3.org/2000/svg" p-id="3988" width="32" height="32" xmlns:xlink="http://www.w3.org/1999/xlink"><defs><style type="text/css"></style></defs><path d="M776.577087 687.485754h-142.616987l35.111076-26.332283c9.69517-7.263442 11.655911-21.019342 4.381205-30.714512-7.253204-9.652167-20.986578-11.655911-30.714512-4.381205l-111.159134 83.368838 111.159134 83.368839a21.822068 21.822068 0 0 0 13.14464 4.392468c6.674708 0 13.262387-3.031724 17.569872-8.773673 7.273681-9.69517 5.313965-23.451069-4.381205-30.714512l-35.111076-26.332283h142.616987c42.337658 0 76.791399 34.453741 76.7914 76.791399s-34.453741 76.791399-76.7914 76.7914H590.083543c-12.116659 0-21.940839 9.82418-21.940839 21.940838s9.82418 21.940839 21.940839 21.940839h186.493544c66.539236 0 120.672053-54.132817 120.672053-120.672053s-54.132817-120.674101-120.672053-120.6741z" fill="#e14c46" p-id="3989"></path><path d="M173.2158 863.008367V160.915865c0-12.095157 9.845681-21.940839 21.940838-21.940838h570.450542c12.095157 0 21.940839 9.845681 21.940839 21.940838v416.867743H831.428672V160.915865c0-36.295711-29.525781-65.821492-65.821492-65.821492H195.156638c-36.295711 0-65.821492 29.524757-65.821492 65.821492v702.092502c0 36.295711 29.524757 65.821492 65.821492 65.821492h263.284945v-43.880653H195.156638c-12.095157 0-21.940839-9.845681-21.940838-21.940839z" fill="#df1811" p-id="3990"></path><path d="M239.037292 270.618011h285.224759v43.880653H239.037292zM655.905035 248.677172h87.761306v87.761307h-87.761306zM239.037292 490.022302h504.629049v43.880653H239.037292zM239.037292 709.425568h241.344105V753.306222H239.037292z" fill="#e14c46" p-id="3991"></path></svg>