<?xml version="1.0" standalone="no"?><!DOCTYPE svg PUBLIC "-//W3C//DTD SVG 1.1//EN" "http://www.w3.org/Graphics/SVG/1.1/DTD/svg11.dtd"><svg t="1595398924592" class="icon" viewBox="-280 -280 1500 1500" version="1.1" xmlns="http://www.w3.org/2000/svg" p-id="5302" width="32" height="32" xmlns:xlink="http://www.w3.org/1999/xlink"><defs><style type="text/css"></style></defs><path d="M555.52 509.44l145.92-145.92c10.24-10.24 10.24-25.6 0-33.28l-10.24-10.24c-10.24-10.24-25.6-10.24-33.28 0L512 465.92l-148.48-148.48c-7.68-7.68-20.48-7.68-30.72 0l-12.8 12.8c-7.68 7.68-7.68 20.48 0 30.72l148.48 148.48-145.92 145.92c-10.24 10.24-10.24 25.6 0 33.28l7.68 7.68c10.24 10.24 25.6 10.24 33.28 0l145.92-145.92 148.48 148.48c7.68 7.68 20.48 7.68 30.72 0l12.8-12.8c7.68-7.68 7.68-20.48 0-30.72l-145.92-145.92zM512 56.32c-250.88 0-453.12 202.24-453.12 453.12S261.12 962.56 512 962.56c250.88 0 453.12-202.24 453.12-453.12S762.88 56.32 512 56.32z m0 870.4c-230.4 0-417.28-186.88-417.28-417.28S281.6 92.16 512 92.16s417.28 186.88 417.28 417.28S742.4 926.72 512 926.72z" fill="#e14c46" p-id="5303"></path></svg>