<?xml version="1.0" encoding="UTF-8"?>
<svg width="30px" height="30px" viewBox="0 0 30 30" version="1.1" xmlns="http://www.w3.org/2000/svg" xmlns:xlink="http://www.w3.org/1999/xlink">
    <!-- Generator: Sketch 53.2 (72643) - https://sketchapp.com -->
    <title>矩形 copy 23</title>
    <desc>Created with Sketch.</desc>
    <g id="页面-1" stroke="none" stroke-width="1" fill="none" fill-rule="evenodd">
        <g id="交易列表-删除单条数据（UI）-" transform="translate(-1271.000000, -400.000000)">
            <g id="分组-220" transform="translate(1175.000000, 393.000000)">
                <g id="分组-217" transform="translate(96.000000, 7.000000)">
                    <rect id="矩形-copy-23" stroke="#D4D8DE" stroke-width="1.5" fill="#FFFFFF" opacity="0" x="0.75" y="0.75" width="28.5" height="28.5"></rect>
                    <g id="删-除-(1)" transform="translate(6.000000, 6.000000)" fill="#E14C46" fill-rule="nonzero">
                        <path d="M13.7368948,15.1700166 C13.7368948,15.7753639 13.2559906,16.2680657 12.66521,16.2680657 L4.94348567,16.2680657 C4.35268281,16.2680657 3.87180089,15.7753411 3.87180089,15.1700166 L3.87180089,3.5139257 L13.7368948,3.5139257 L13.7368948,15.1700166 Z M6.01519269,1.54309579 C6.01519269,1.41639519 6.11137352,1.31785027 6.23503458,1.31785027 L11.3874012,1.31785027 C11.5110623,1.31785027 11.6072431,1.41639519 11.6072431,1.54309579 L11.6072431,2.20473171 L6.01519269,2.20473171 L6.01519269,1.54309579 Z M16.9519936,2.20473171 L12.8850296,2.20473171 L12.8850296,1.54309579 C12.8850296,0.698425108 12.2118083,0.00865627988 11.3874012,0.00865627988 L6.23503458,0.00865627988 C5.41062747,0.00865627988 4.73740613,0.698425108 4.73740613,1.54309579 L4.73740613,2.20473171 L0.656724308,2.20473171 C0.299481225,2.20473171 0.0109387352,2.50036644 0.0109387352,2.86636762 C0.0109387352,3.23236881 0.299481225,3.52800354 0.656702075,3.52800354 L2.58027421,3.52800354 L2.58027421,15.1700166 C2.58027421,16.5073891 3.63821887,17.5913375 4.94348567,17.5913375 L12.66521,17.5913375 C13.9704768,17.5913375 15.0284214,16.5073891 15.0284214,15.1700166 L15.0284214,3.5139257 L16.9519936,3.5139257 C17.3092144,3.5139257 17.5977569,3.21831374 17.5977569,2.85228978 C17.5977569,2.48626582 17.3092144,2.20473171 16.9519936,2.20473171 L16.9519936,2.20473171 Z M8.80434783,14.2831579 C9.16159091,14.2831579 9.45011117,13.9875232 9.45011117,13.6214992 L9.45011117,6.58280471 C9.45011117,6.21678075 9.16159091,5.92116879 8.80434783,5.92116879 C8.44710474,5.92116879 8.15858449,6.21678075 8.15858449,6.58280471 L8.15858449,13.6214992 C8.15858449,13.9875232 8.44710474,14.2831579 8.80434783,14.2831579 L8.80434783,14.2831579 Z M5.79535079,14.2831579 C6.15259387,14.2831579 6.44111413,13.9875232 6.44111413,13.6214992 L6.44111413,6.58280471 C6.44111413,6.21678075 6.15259387,5.92116879 5.79535079,5.92116879 C5.43810771,5.92116879 5.14958745,6.21678075 5.14958745,6.58280471 L5.14958745,13.6214992 C5.16332757,13.9875232 5.45187006,14.2831579 5.79535079,14.2831579 L5.79535079,14.2831579 Z M11.8133449,14.2831579 C12.1705657,14.2831579 12.4591082,13.9875232 12.4591082,13.6214992 L12.4591082,6.58280471 C12.4591082,6.21678075 12.1705657,5.92116879 11.8133449,5.92116879 C11.456124,5.92116879 11.1675815,6.21678075 11.1675815,6.58280471 L11.1675815,13.6214992 C11.1675815,13.9875232 11.4561018,14.2831579 11.8133449,14.2831579 L11.8133449,14.2831579 Z" id="形状"></path>
                    </g>
                </g>
            </g>
        </g>
    </g>
</svg>