<?xml version="1.0" encoding="UTF-8"?>
<svg width="30px" height="30px" viewBox="0 0 30 30" version="1.1" xmlns="http://www.w3.org/2000/svg" xmlns:xlink="http://www.w3.org/1999/xlink">
    <!-- Generator: Sketch 53.2 (72643) - https://sketchapp.com -->
    <title>矩形 copy 141</title>
    <desc>Created with Sketch.</desc>
    <g id="页面-1" stroke="none" stroke-width="1" fill="none" fill-rule="evenodd">
        <g id="交易列表-删除单条数据（UI）-" transform="translate(-1229.000000, -400.000000)">
            <g id="分组-220" transform="translate(1175.000000, 393.000000)">
                <g id="分组-218" transform="translate(54.000000, 7.000000)">
                    <rect id="矩形-copy-141" stroke="#D4D8DE" stroke-width="1.5" fill="#FFFFFF" opacity="0" x="0.75" y="0.75" width="28.5" height="28.5"></rect>
                    <g id="编辑-(2)" transform="translate(6.000000, 6.000000)" fill="#E14C46" fill-rule="nonzero">
                        <path d="M15.4292633,0.753428566 C16.4490365,1.75757104 16.4490365,3.38528609 15.4292633,4.38942857 L6.65538573,13.0262143 L2.96101837,9.39021428 L11.735549,0.753428566 C12.7556302,-0.250410706 14.409182,-0.250410706 15.4292633,0.753428566 Z M12.6589776,1.66242857 L4.80852858,9.38957143 L6.65538573,11.2082143 L14.5058347,3.48107143 C14.7510945,3.23991225 14.888903,2.91266904 14.888903,2.57142858 C14.888903,2.23018811 14.7510945,1.9029449 14.5058347,1.66178572 C13.9957941,1.16050893 13.1690182,1.16050893 12.6589776,1.66242857 Z M1.10501837,14.8712143 L2.05587551,10.3082143 L5.74110001,13.9358572 L1.10501837,14.8712143 Z M16.8816714,16.7142857 C17.242305,16.7143444 17.5346247,17.0021442 17.5346247,17.3571429 C17.5346247,17.7121415 17.242305,17.9999413 16.8816714,18 L1.20820205,18 C0.847568466,17.9999413 0.555248806,17.7121415 0.555248806,17.3571429 C0.555248806,17.0021442 0.847568466,16.7143444 1.20820205,16.7142857 L16.8816714,16.7142857 Z" id="形状"></path>
                    </g>
                </g>
            </g>
        </g>
    </g>
</svg>