<?xml version="1.0" encoding="UTF-8"?>
<svg width="20px" height="20px" viewBox="0 0 20 20" version="1.1" xmlns="http://www.w3.org/2000/svg" xmlns:xlink="http://www.w3.org/1999/xlink">
    <!-- Generator: Sketch 53.2 (72643) - https://sketchapp.com -->
    <title>矩形 copy 53</title>
    <desc>Created with Sketch.</desc>
    <g id="页面-1" stroke="none" stroke-width="1" fill="none" fill-rule="evenodd">
        <g id="交易列表-左侧状态栏（UI）" transform="translate(-62.000000, -126.000000)">
            <g id="文件夹" transform="translate(62.000000, 126.000000)">
                <rect id="矩形-copy-53" fill="#D8D8D8" opacity="0" x="0" y="0" width="20" height="20"></rect>
                <rect id="矩形-copy-125" fill="#A9A9A9" opacity="0" x="2" y="2" width="16" height="16"></rect>
                <g id="文件夹-(10)-copy-8" transform="translate(2.000000, 3.000000)" fill-rule="nonzero">
                    <path d="M15.9826697,11.5083776 L7.02831499e-05,11.5083776 L7.02831499e-05,1.99648266 L14.7933889,1.99648266 C15.4511875,1.99648266 15.9850531,2.52715875 15.9850531,3.18102749 L15.9850531,11.5083776 L15.9826697,11.5083776 Z M9.98859911,1.99648266 C9.98859911,0.899594158 9.09485101,0.01118554 7.99137001,0.01118554 L7.02831499e-05,0.01118554 L7.02831499e-05,1.99648266 L9.98859911,1.99648266 L9.98859911,1.99648266 Z" id="形状" fill="#FFD350"></path>
                    <polygon id="路径" fill="#FFFFFF" points="1.99729938 8.85736628 1.99729938 2.90147491 13.9854406 2.90147491 13.9854406 8.85736628 1.99729938 8.85736628"></polygon>
                    <path d="M15.9826697,12.7663642 L15.9826697,5.05260831 C15.9826697,4.5053486 15.534604,4.05995975 14.9840552,4.05995975 L0.998684833,4.05995975 C0.448136,4.05995975 7.02831499e-05,4.5053486 7.02831499e-05,5.05260831 L7.02831499e-05,12.7639951 C7.02831499e-05,13.4391857 0.550619116,13.9888145 1.232251,13.9888145 L14.7528723,13.9888145 C15.4321209,13.9911835 15.9826697,13.4415548 15.9826697,12.7663642 L15.9826697,12.7663642 Z" id="路径" fill="#FFDF7F"></path>
                </g>
            </g>
        </g>
    </g>
</svg>