<?xml version="1.0" standalone="no"?><!DOCTYPE svg PUBLIC "-//W3C//DTD SVG 1.1//EN" "http://www.w3.org/Graphics/SVG/1.1/DTD/svg11.dtd"><svg t="1595397995908" class="icon" viewBox="100 -280 850 1500" version="1.1" xmlns="http://www.w3.org/2000/svg" p-id="2599" width="20" height="32" xmlns:xlink="http://www.w3.org/1999/xlink"><defs><style type="text/css"></style></defs><path d="M440 112m72 0l0 0q72 0 72 72l0 0q0 72-72 72l0 0q-72 0-72-72l0 0q0-72 72-72Z" p-id="2600" fill="#e14c46"></path><path d="M440 440m72 0l0 0q72 0 72 72l0 0q0 72-72 72l0 0q-72 0-72-72l0 0q0-72 72-72Z" p-id="2601" fill="#e14c46"></path><path d="M440 768m72 0l0 0q72 0 72 72l0 0q0 72-72 72l0 0q-72 0-72-72l0 0q0-72 72-72Z" p-id="2602" fill="#e14c46"></path></svg>