<?xml version="1.0" standalone="no"?><!DOCTYPE svg PUBLIC "-//W3C//DTD SVG 1.1//EN" "http://www.w3.org/Graphics/SVG/1.1/DTD/svg11.dtd"><svg t="1587446115078" class="icon" viewBox="-300 -300 1524 1524" version="1.1" xmlns="http://www.w3.org/2000/svg" p-id="2484" width="32" height="32" xmlns:xlink="http://www.w3.org/1999/xlink"><defs><style type="text/css"></style></defs><path d="M444.845 818.622l3.584-2.676c3.006-2.262 4.774-3.55 6.409-5.186l535.139-542.62c22.974-23.272 23.403-61.639 1.007-85.538-21.52-22.808-59.342-23.353-81.342-0.99L387.815 710.688 112.541 424.861c-9.365-9.745-22.115-15.112-35.873-15.112-15.575 0-30.522 6.606-42.083 18.613-22.726 23.569-24.23 60.35-3.37 82.003l321.718 334.072c19.803 20.53 56.37 18.861 77.94-3.535 4.872-5.037 8.968-11.198 12.156-18.234l1.816-4.046z" fill="#e14c46" p-id="2485"></path></svg>