<?xml version="1.0" standalone="no"?><!DOCTYPE svg PUBLIC "-//W3C//DTD SVG 1.1//EN" "http://www.w3.org/Graphics/SVG/1.1/DTD/svg11.dtd"><svg t="1591091275162" class="icon" viewBox="-280 -280 1500 1500" version="1.1" xmlns="http://www.w3.org/2000/svg" p-id="4449" width="32" height="32" xmlns:xlink="http://www.w3.org/1999/xlink"><defs><style type="text/css"></style></defs><path d="M859.327008 687.076434l1.901303 0.10847 0-84.630493 0.055259 0L861.28357 146.844439c0-44.13622-39.732933-80.010265-88.490404-80.010265L226.420311 66.834174c-48.810682 0-88.490404 35.875069-88.490404 80.010265l0 442.011996-0.10847 0 0 233.073336c0 44.13622 39.788192 80.010265 88.543615 80.010265l354.447684 0c32.340569 33.80799 77.618798 55.224766 127.951137 55.224766 97.838306 0 177.413666-79.629595 177.413666-177.414689C886.17754 745.670947 876.013039 714.089671 859.327008 687.076434zM226.365052 846.281389c-17.828041 0-32.884968-11.143805-32.884968-24.351618L193.480085 602.554412l0.10847 0L193.588555 146.844439c0-13.207813 15.001669-24.351618 32.830733-24.351618l546.373879 0c17.829064 0 32.830733 11.143805 32.830733 24.351618l0 442.011996-0.055259 0 0 42.614563c-27.884071-18.262946-61.039191-29.025057-96.80579-29.025057-97.729835 0-177.305195 79.521125-177.305195 177.305195 0 23.536043 4.891404 45.930075 13.262048 66.531276L226.365052 846.282413zM708.763874 901.506155c-67.073628 0-121.646548-54.68139-121.646548-121.755018 0-67.073628 54.57292-121.645524 121.646548-121.645524 67.127863 0 121.753995 54.571896 121.753995 121.645524C830.518892 846.824765 775.891737 901.506155 708.763874 901.506155z" p-id="4450" fill="#e14c46"></path><path d="M769.641383 785.078469c5.979178 0 10.870582-4.838192 10.870582-10.871605 0-5.979178-4.891404-10.870582-10.870582-10.870582l-48.539506 0 39.787168-41.744753c4.131087-4.348028 3.968381-11.305487-0.379647-15.436574-4.293793-4.131087-11.197016-3.967358-15.382339 0.434905l-34.841529 36.58115-35.602869-34.732036c-4.293793-4.240581-11.142781-4.131087-15.381315 0.216941-4.186346 4.293793-4.131087 11.197016 0.216941 15.382339l40.331567 39.298028-49.354058 0c-5.979178 0-10.870582 4.891404-10.870582 10.870582 0 6.033413 4.891404 10.871605 10.870582 10.871605l48.702212 0 0 17.393135-48.702212 0c-5.979178 0-10.870582 4.891404-10.870582 10.870582 0 6.033413 4.891404 10.871605 10.870582 10.871605l48.702212 0 0 40.440038c0 6.033413 4.891404 10.870582 10.870582 10.870582s10.871605-4.837168 10.871605-10.870582l0-40.440038 48.702212 0c5.979178 0 10.870582-4.838192 10.870582-10.871605 0-5.979178-4.891404-10.870582-10.870582-10.870582l-48.702212 0 0-17.393135L769.641383 785.078469z" p-id="4451" fill="#e14c46"></path><path d="M412.584268 456.394564l278.296307 0c15.382339 0 27.829835-12.447497 27.829835-27.828812 0-15.382339-12.447497-27.829835-27.829835-27.829835L412.584268 400.735917c-15.382339 0-27.828812 12.447497-27.828812 27.829835C384.755456 443.947068 397.201929 456.394564 412.584268 456.394564z" p-id="4452" fill="#e14c46"></path><path d="M412.584268 289.416576l278.296307 0c15.382339 0 27.829835-12.447497 27.829835-27.828812 0-15.382339-12.447497-27.829835-27.829835-27.829835L412.584268 233.757928c-15.382339 0-27.828812 12.447497-27.828812 27.829835C384.755456 276.969079 397.201929 289.416576 412.584268 289.416576z" p-id="4453" fill="#e14c46"></path><path d="M301.26595 567.712883c-15.382339 0-27.829835 12.446473-27.829835 27.828812s12.447497 27.829835 27.829835 27.829835 27.828812-12.447497 27.828812-27.829835S316.648288 567.712883 301.26595 567.712883z" p-id="4454" fill="#e14c46"></path><path d="M301.26595 233.757928c-15.382339 0-27.829835 12.447497-27.829835 27.829835 0 15.381315 12.447497 27.828812 27.829835 27.828812s27.828812-12.447497 27.828812-27.828812C329.095785 246.205425 316.648288 233.757928 301.26595 233.757928z" p-id="4455" fill="#e14c46"></path><path d="M301.26595 400.735917c-15.382339 0-27.829835 12.447497-27.829835 27.829835 0 15.381315 12.447497 27.828812 27.829835 27.828812s27.828812-12.447497 27.828812-27.828812C329.095785 413.183414 316.648288 400.735917 301.26595 400.735917z" p-id="4456" fill="#e14c46"></path><path d="M551.733445 595.542718c0-15.382339-12.447497-27.828812-27.829835-27.828812L412.584268 567.713906c-15.382339 0-27.828812 12.446473-27.828812 27.828812s12.446473 27.829835 27.828812 27.829835l111.318318 0C539.285948 623.372553 551.733445 610.925057 551.733445 595.542718z" p-id="4457" fill="#e14c46"></path></svg>