<?xml version="1.0" standalone="no"?><!DOCTYPE svg PUBLIC "-//W3C//DTD SVG 1.1//EN" "http://www.w3.org/Graphics/SVG/1.1/DTD/svg11.dtd"><svg t="1572318231401" class="icon" viewBox="-50 -60 1150 1150" version="1.1" xmlns="http://www.w3.org/2000/svg" p-id="2794" width="30" height="30" xmlns:xlink="http://www.w3.org/1999/xlink"><defs><style type="text/css"></style></defs><path d="M641.66895833 416.2746875H399.45458333V251.3459375h242.2134375v164.92875z m51.2128125-216.1415625H348.24270833V467.4875h344.638125V200.133125z" fill="#E14C46" p-id="2795"></path><path d="M581.64927083 381.8834375c-15.5325 0-28.125-12.5925-28.125-28.125v-39.8953125c0-15.5325 12.5925-28.125 28.125-28.125s28.125 12.5925 28.125 28.125v39.8953125c0 15.5325-12.5925 28.125-28.125 28.125z" fill="#E14C46" p-id="2796"></path><path d="M723.55114583 242.81c17.56125 0 34.1540625 6.91875 46.7165625 19.4821875 12.5634375 12.5634375 19.4821875 29.1553125 19.4821875 46.7175V714.9875c0 17.5640625-6.91875 34.1559375-19.4821875 46.7184375-12.5625 12.564375-29.1553125 19.4840625-46.7165625 19.4840625H317.57145833c-17.5603125 0-34.153125-6.9196875-46.7165625-19.4840625-12.5625-12.5625-19.4821875-29.154375-19.4821875-46.7184375V309.010625c0-17.5621875 6.9196875-34.1540625 19.4821875-46.7175 12.5634375-12.5634375 29.15625-19.4821875 46.7165625-19.4821875h405.9796875m0-42.6778125H317.57145833c-59.881875 0-108.8765625 48.9946875-108.8765625 108.8775V714.9875c0 59.88375 48.9946875 108.879375 108.8765625 108.879375H723.55208333c59.8828125 0 108.8775-48.995625 108.8775-108.879375V309.010625c-0.0009375-59.8828125-48.995625-108.8775-108.8784375-108.8775" fill="#E14C46" p-id="2797"></path></svg>