<?xml version="1.0" standalone="no"?><!DOCTYPE svg PUBLIC "-//W3C//DTD SVG 1.1//EN" "http://www.w3.org/Graphics/SVG/1.1/DTD/svg11.dtd"><svg t="1573733533474" class="icon" viewBox="0 0 1024 1024" version="1.1" xmlns="http://www.w3.org/2000/svg" p-id="22853" xmlns:xlink="http://www.w3.org/1999/xlink" width="32" height="32"><defs><style type="text/css"></style></defs><path d="M535.04 0h69.632v95.232c124.416 0.512 248.32-1.536 373.248 0.512 22.528-2.56 42.496 13.312 45.056 35.328 0.512 3.072 0.512 6.656 0 9.728 2.048 234.496 0 469.504 1.024 704-1.024 24.064 2.048 50.688-11.264 72.192-16.896 12.288-38.912 11.264-58.88 11.264h-349.184v95.232h-72.704C354.816 990.72 177.664 960.512 0 928.768V95.744C178.176 63.488 356.864 32.256 535.04 0z" fill="#A33639" p-id="22854"></path><path d="M604.672 131.072h384v761.856h-384z" fill="#FFFFFF" p-id="22855"></path><path d="M645.632 529.92h302.592v47.616h-302.592v-47.616z m0 81.408h302.592v47.616h-302.592v-47.616z m0 81.92h302.592v47.616h-302.592v-47.616z m0 81.92h302.592v47.616h-302.592v-47.616z" fill="#A33639" p-id="22856"></path><path d="M180.736 317.44c59.392 3.072 131.072-24.064 180.736 21.504 47.104 58.368 34.304 165.888-35.328 200.704-24.576 12.8-53.248 11.264-79.872 10.24V680.96l-65.536-5.632c-1.024-119.296-1.024-238.592 0-357.888z" fill="#FFFFFF" p-id="22857"></path><path d="M245.76 377.856c21.504-1.024 48.128-5.12 62.464 15.36 11.776 23.04 12.288 50.176 1.536 73.216-12.288 22.528-40.448 20.992-62.464 23.552-2.048-37.376-2.048-74.752-1.536-112.128z m640 2.048c-17.92-1.024-34.816-8.192-48.128-19.456-26.624 6.144-52.736 14.336-77.824 25.088-20.48 35.84-39.424 54.272-55.296 54.272-3.584 0-6.656-1.024-9.728-2.56-6.656-3.072-11.264-10.24-11.264-17.92 0-5.632 1.536-22.528 63.488-49.152 14.336-26.112 25.6-53.248 34.816-81.408-7.68-15.872-25.088-54.272-13.312-73.728 4.096-7.168 11.776-11.264 19.968-10.752 6.656 0 12.8 3.072 16.896 8.704 8.704 11.264 7.68 36.864-3.072 73.216 10.752 19.456 24.064 37.376 40.96 52.736 13.312-2.56 27.136-4.096 40.96-4.608 30.72 0.512 35.328 14.848 34.816 23.552-0.512 22.528-22.016 22.528-33.28 22.016z m-184.832 41.984l2.048-0.512c9.728-2.56 17.92-8.704 24.064-16.896-10.24 3.072-19.456 9.216-26.112 17.408z m93.184-200.192h-2.048c-1.024 0-2.048 0-3.072 0.512-2.56 11.264-1.024 23.552 4.096 33.792 4.096-10.752 4.608-23.04 1.024-34.304z m-4.096 95.744v1.024l-0.512-0.512c-5.632 14.336-11.264 28.672-17.92 42.496l1.024-0.512v1.536c13.312-5.12 26.624-9.216 39.936-12.8l-0.512-0.512h2.048c-9.216-9.728-16.896-19.456-24.064-30.72z m94.72 34.816c-6.144-0.512-12.288 0.512-17.92 1.536 6.656 3.584 13.824 6.144 20.992 6.656 4.608 0.512 9.728 0 13.824-1.536-0.512-2.56-3.584-6.656-16.896-6.656z" fill="#A33639" p-id="22858"></path></svg>