<?xml version="1.0" standalone="no"?><!DOCTYPE svg PUBLIC "-//W3C//DTD SVG 1.1//EN" "http://www.w3.org/Graphics/SVG/1.1/DTD/svg11.dtd"><svg t="1573733520625" class="icon" viewBox="0 0 1059 1024" version="1.1" xmlns="http://www.w3.org/2000/svg" p-id="22606" xmlns:xlink="http://www.w3.org/1999/xlink" width="33.09375" height="32"><defs><style type="text/css"></style></defs><path d="M628.738106 121.102732v60.997646H776.528424v109.820756h-147.736764v24.402629H776.528424v109.820755h-147.736764v24.402629H776.528424v122.013144h-147.736764v24.384778H776.528424v109.820756h-147.736764v24.402629H776.528424v109.802904h-147.736764v60.997646h430.892945V121.102732zM973.481024 840.971358h-172.371459v-109.802904h172.371459z m0-134.205533h-172.371459v-109.802905h172.371459z m0-134.223385h-172.371459v-121.995293h172.371459z m0-146.380071h-172.371459V316.323763h172.371459z m0-134.223384h-172.371459v-109.838607h172.371459z m0 0" fill="#8FA3B4" p-id="22607"></path><path d="M0 109.802904V914.161393l629.827031 109.802905V0z m205.699702 305.452365h-57.12393v154.377421H108.089186v-154.377421h-57.659466V382.194795h155.305684z m128.528843 154.912958l-36.595018-64.139463-38.255182 64.139463h-46.573854l61.551034-95.664732-58.123598-92.3087h47.68063l34.363614 61.426076 34.934854-61.426076h46.020466l-58.212855 90.773495 62.104422 97.289193z m211.251433-154.912958h-57.12393v154.377421H448.065826v-154.377421h-57.659466V382.194795h155.305684z" fill="#8FA3B4" p-id="22608"></path></svg>